<mxfile host="app.diagrams.net" agent="Mozilla/5.0 (Windows NT 10.0; Win64; x64) AppleWebKit/537.36 (KHTML, like Gecko) Chrome/137.0.0.0 Safari/537.36 OPR/121.0.0.0" version="28.2.1">
  <diagram id="prtHgNgQTEPvFCAcTncT" name="Page-1">
    <mxGraphModel dx="3167" dy="2925" grid="1" gridSize="10" guides="1" tooltips="1" connect="1" arrows="1" fold="1" page="1" pageScale="1" pageWidth="827" pageHeight="1169" math="0" shadow="0">
      <root>
        <mxCell id="0" />
        <mxCell id="1" parent="0" />
        <mxCell id="dNxyNK7c78bLwvsdeMH5-19" value="Biblioteca monteiro lobato sistema" style="swimlane;html=1;childLayout=stackLayout;resizeParent=1;resizeParentMax=0;horizontal=0;startSize=20;horizontalStack=0;" parent="1" vertex="1">
          <mxGeometry x="120" y="-120" width="2080" height="1790" as="geometry" />
        </mxCell>
        <mxCell id="dNxyNK7c78bLwvsdeMH5-20" value="Master" style="swimlane;html=1;startSize=20;horizontal=0;" parent="dNxyNK7c78bLwvsdeMH5-19" vertex="1">
          <mxGeometry x="20" width="2060" height="1790" as="geometry" />
        </mxCell>
        <mxCell id="dNxyNK7c78bLwvsdeMH5-25" value="" style="edgeStyle=orthogonalEdgeStyle;rounded=0;orthogonalLoop=1;jettySize=auto;html=1;" parent="dNxyNK7c78bLwvsdeMH5-20" source="dNxyNK7c78bLwvsdeMH5-23" edge="1">
          <mxGeometry relative="1" as="geometry">
            <mxPoint x="150" y="895" as="targetPoint" />
          </mxGeometry>
        </mxCell>
        <mxCell id="dNxyNK7c78bLwvsdeMH5-23" value="" style="ellipse;whiteSpace=wrap;html=1;" parent="dNxyNK7c78bLwvsdeMH5-20" vertex="1">
          <mxGeometry x="70" y="875" width="40" height="40" as="geometry" />
        </mxCell>
        <mxCell id="XLGJFGpEY72RRmkggF6s-1" value="admin faz login" style="points=[[0.25,0,0],[0.5,0,0],[0.75,0,0],[1,0.25,0],[1,0.5,0],[1,0.75,0],[0.75,1,0],[0.5,1,0],[0.25,1,0],[0,0.75,0],[0,0.5,0],[0,0.25,0]];shape=mxgraph.bpmn.task2;whiteSpace=wrap;rectStyle=rounded;size=10;html=1;container=1;expand=0;collapsible=0;taskMarker=abstract;" vertex="1" parent="dNxyNK7c78bLwvsdeMH5-20">
          <mxGeometry x="150" y="855" width="120" height="80" as="geometry" />
        </mxCell>
        <mxCell id="XLGJFGpEY72RRmkggF6s-7" style="edgeStyle=orthogonalEdgeStyle;rounded=0;orthogonalLoop=1;jettySize=auto;html=1;" edge="1" parent="dNxyNK7c78bLwvsdeMH5-20" source="XLGJFGpEY72RRmkggF6s-2" target="XLGJFGpEY72RRmkggF6s-6">
          <mxGeometry relative="1" as="geometry" />
        </mxCell>
        <mxCell id="XLGJFGpEY72RRmkggF6s-2" value="Login válido?" style="strokeWidth=2;html=1;shape=mxgraph.flowchart.decision;whiteSpace=wrap;" vertex="1" parent="dNxyNK7c78bLwvsdeMH5-20">
          <mxGeometry x="330" y="845" width="100" height="100" as="geometry" />
        </mxCell>
        <mxCell id="XLGJFGpEY72RRmkggF6s-3" style="edgeStyle=orthogonalEdgeStyle;rounded=0;orthogonalLoop=1;jettySize=auto;html=1;exitX=1;exitY=0.5;exitDx=0;exitDy=0;exitPerimeter=0;entryX=0;entryY=0.5;entryDx=0;entryDy=0;entryPerimeter=0;" edge="1" parent="dNxyNK7c78bLwvsdeMH5-20" source="XLGJFGpEY72RRmkggF6s-1" target="XLGJFGpEY72RRmkggF6s-2">
          <mxGeometry relative="1" as="geometry" />
        </mxCell>
        <mxCell id="XLGJFGpEY72RRmkggF6s-4" style="edgeStyle=orthogonalEdgeStyle;rounded=0;orthogonalLoop=1;jettySize=auto;html=1;exitX=0.5;exitY=0;exitDx=0;exitDy=0;exitPerimeter=0;entryX=0.5;entryY=0;entryDx=0;entryDy=0;entryPerimeter=0;" edge="1" parent="dNxyNK7c78bLwvsdeMH5-20" source="XLGJFGpEY72RRmkggF6s-2" target="XLGJFGpEY72RRmkggF6s-1">
          <mxGeometry relative="1" as="geometry" />
        </mxCell>
        <mxCell id="XLGJFGpEY72RRmkggF6s-5" value="não" style="edgeLabel;html=1;align=center;verticalAlign=middle;resizable=0;points=[];" vertex="1" connectable="0" parent="XLGJFGpEY72RRmkggF6s-4">
          <mxGeometry x="-0.0909" relative="1" as="geometry">
            <mxPoint as="offset" />
          </mxGeometry>
        </mxCell>
        <mxCell id="XLGJFGpEY72RRmkggF6s-6" value="acesso ao sistema autorizado" style="points=[[0.25,0,0],[0.5,0,0],[0.75,0,0],[1,0.25,0],[1,0.5,0],[1,0.75,0],[0.75,1,0],[0.5,1,0],[0.25,1,0],[0,0.75,0],[0,0.5,0],[0,0.25,0]];shape=mxgraph.bpmn.task2;whiteSpace=wrap;rectStyle=rounded;size=10;html=1;container=1;expand=0;collapsible=0;taskMarker=abstract;" vertex="1" parent="dNxyNK7c78bLwvsdeMH5-20">
          <mxGeometry x="470" y="855" width="120" height="80" as="geometry" />
        </mxCell>
        <mxCell id="XLGJFGpEY72RRmkggF6s-8" value="escolher funcionalidade" style="strokeWidth=2;html=1;shape=mxgraph.flowchart.decision;whiteSpace=wrap;" vertex="1" parent="dNxyNK7c78bLwvsdeMH5-20">
          <mxGeometry x="640" y="845" width="100" height="100" as="geometry" />
        </mxCell>
        <mxCell id="XLGJFGpEY72RRmkggF6s-9" style="edgeStyle=orthogonalEdgeStyle;rounded=0;orthogonalLoop=1;jettySize=auto;html=1;exitX=1;exitY=0.5;exitDx=0;exitDy=0;exitPerimeter=0;entryX=0;entryY=0.5;entryDx=0;entryDy=0;entryPerimeter=0;" edge="1" parent="dNxyNK7c78bLwvsdeMH5-20" source="XLGJFGpEY72RRmkggF6s-6" target="XLGJFGpEY72RRmkggF6s-8">
          <mxGeometry relative="1" as="geometry" />
        </mxCell>
        <mxCell id="XLGJFGpEY72RRmkggF6s-15" value="Listagem de usuários" style="points=[[0.25,0,0],[0.5,0,0],[0.75,0,0],[1,0.25,0],[1,0.5,0],[1,0.75,0],[0.75,1,0],[0.5,1,0],[0.25,1,0],[0,0.75,0],[0,0.5,0],[0,0.25,0]];shape=mxgraph.bpmn.task2;whiteSpace=wrap;rectStyle=rounded;size=10;html=1;container=1;expand=0;collapsible=0;taskMarker=abstract;" vertex="1" parent="dNxyNK7c78bLwvsdeMH5-20">
          <mxGeometry x="850" y="855" width="120" height="80" as="geometry" />
        </mxCell>
        <mxCell id="XLGJFGpEY72RRmkggF6s-16" style="edgeStyle=orthogonalEdgeStyle;rounded=0;orthogonalLoop=1;jettySize=auto;html=1;exitX=1;exitY=0.5;exitDx=0;exitDy=0;exitPerimeter=0;entryX=0;entryY=0.5;entryDx=0;entryDy=0;entryPerimeter=0;" edge="1" parent="dNxyNK7c78bLwvsdeMH5-20" source="XLGJFGpEY72RRmkggF6s-8" target="XLGJFGpEY72RRmkggF6s-15">
          <mxGeometry relative="1" as="geometry" />
        </mxCell>
        <mxCell id="XLGJFGpEY72RRmkggF6s-17" value="usuários" style="edgeLabel;html=1;align=center;verticalAlign=middle;resizable=0;points=[];" vertex="1" connectable="0" parent="XLGJFGpEY72RRmkggF6s-16">
          <mxGeometry x="0.0286" y="2" relative="1" as="geometry">
            <mxPoint as="offset" />
          </mxGeometry>
        </mxCell>
        <mxCell id="XLGJFGpEY72RRmkggF6s-10" value="encerrar sessão" style="points=[[0.25,0,0],[0.5,0,0],[0.75,0,0],[1,0.25,0],[1,0.5,0],[1,0.75,0],[0.75,1,0],[0.5,1,0],[0.25,1,0],[0,0.75,0],[0,0.5,0],[0,0.25,0]];shape=mxgraph.bpmn.task2;whiteSpace=wrap;rectStyle=rounded;size=10;html=1;container=1;expand=0;collapsible=0;taskMarker=abstract;" vertex="1" parent="dNxyNK7c78bLwvsdeMH5-20">
          <mxGeometry x="820" y="540" width="120" height="80" as="geometry" />
        </mxCell>
        <mxCell id="XLGJFGpEY72RRmkggF6s-11" style="edgeStyle=orthogonalEdgeStyle;rounded=0;orthogonalLoop=1;jettySize=auto;html=1;exitX=0.5;exitY=0;exitDx=0;exitDy=0;exitPerimeter=0;entryX=0;entryY=0.5;entryDx=0;entryDy=0;entryPerimeter=0;" edge="1" parent="dNxyNK7c78bLwvsdeMH5-20" source="XLGJFGpEY72RRmkggF6s-8" target="XLGJFGpEY72RRmkggF6s-10">
          <mxGeometry relative="1" as="geometry" />
        </mxCell>
        <mxCell id="XLGJFGpEY72RRmkggF6s-12" value="logout" style="edgeLabel;html=1;align=center;verticalAlign=middle;resizable=0;points=[];" vertex="1" connectable="0" parent="XLGJFGpEY72RRmkggF6s-11">
          <mxGeometry x="0.2" y="2" relative="1" as="geometry">
            <mxPoint as="offset" />
          </mxGeometry>
        </mxCell>
        <mxCell id="XLGJFGpEY72RRmkggF6s-14" style="edgeStyle=orthogonalEdgeStyle;rounded=0;orthogonalLoop=1;jettySize=auto;html=1;exitX=1;exitY=0.5;exitDx=0;exitDy=0;exitPerimeter=0;entryX=0;entryY=0.5;entryDx=0;entryDy=0;entryPerimeter=0;" edge="1" parent="dNxyNK7c78bLwvsdeMH5-20" source="XLGJFGpEY72RRmkggF6s-10" target="XLGJFGpEY72RRmkggF6s-13">
          <mxGeometry relative="1" as="geometry" />
        </mxCell>
        <mxCell id="XLGJFGpEY72RRmkggF6s-13" value="" style="points=[[0.145,0.145,0],[0.5,0,0],[0.855,0.145,0],[1,0.5,0],[0.855,0.855,0],[0.5,1,0],[0.145,0.855,0],[0,0.5,0]];shape=mxgraph.bpmn.event;html=1;verticalLabelPosition=bottom;labelBackgroundColor=#ffffff;verticalAlign=top;align=center;perimeter=ellipsePerimeter;outlineConnect=0;aspect=fixed;outline=end;symbol=terminate2;" vertex="1" parent="dNxyNK7c78bLwvsdeMH5-20">
          <mxGeometry x="1040" y="555" width="50" height="50" as="geometry" />
        </mxCell>
        <mxCell id="XLGJFGpEY72RRmkggF6s-18" value="ação desejada" style="strokeWidth=2;html=1;shape=mxgraph.flowchart.decision;whiteSpace=wrap;" vertex="1" parent="dNxyNK7c78bLwvsdeMH5-20">
          <mxGeometry x="1051" y="845" width="100" height="100" as="geometry" />
        </mxCell>
        <mxCell id="XLGJFGpEY72RRmkggF6s-19" style="edgeStyle=orthogonalEdgeStyle;rounded=0;orthogonalLoop=1;jettySize=auto;html=1;exitX=1;exitY=0.5;exitDx=0;exitDy=0;exitPerimeter=0;entryX=0;entryY=0.5;entryDx=0;entryDy=0;entryPerimeter=0;" edge="1" parent="dNxyNK7c78bLwvsdeMH5-20" source="XLGJFGpEY72RRmkggF6s-15" target="XLGJFGpEY72RRmkggF6s-18">
          <mxGeometry relative="1" as="geometry" />
        </mxCell>
        <mxCell id="XLGJFGpEY72RRmkggF6s-20" value="formulário novo usuário" style="points=[[0.25,0,0],[0.5,0,0],[0.75,0,0],[1,0.25,0],[1,0.5,0],[1,0.75,0],[0.75,1,0],[0.5,1,0],[0.25,1,0],[0,0.75,0],[0,0.5,0],[0,0.25,0]];shape=mxgraph.bpmn.task2;whiteSpace=wrap;rectStyle=rounded;size=10;html=1;container=1;expand=0;collapsible=0;taskMarker=abstract;" vertex="1" parent="dNxyNK7c78bLwvsdeMH5-20">
          <mxGeometry x="1270" y="855" width="120" height="80" as="geometry" />
        </mxCell>
        <mxCell id="XLGJFGpEY72RRmkggF6s-21" style="edgeStyle=orthogonalEdgeStyle;rounded=0;orthogonalLoop=1;jettySize=auto;html=1;exitX=1;exitY=0.5;exitDx=0;exitDy=0;exitPerimeter=0;entryX=0;entryY=0.5;entryDx=0;entryDy=0;entryPerimeter=0;" edge="1" parent="dNxyNK7c78bLwvsdeMH5-20" source="XLGJFGpEY72RRmkggF6s-18" target="XLGJFGpEY72RRmkggF6s-20">
          <mxGeometry relative="1" as="geometry" />
        </mxCell>
        <mxCell id="XLGJFGpEY72RRmkggF6s-22" value="cadastrar" style="edgeLabel;html=1;align=center;verticalAlign=middle;resizable=0;points=[];" vertex="1" connectable="0" parent="XLGJFGpEY72RRmkggF6s-21">
          <mxGeometry x="-0.2295" y="-2" relative="1" as="geometry">
            <mxPoint as="offset" />
          </mxGeometry>
        </mxCell>
        <mxCell id="XLGJFGpEY72RRmkggF6s-26" value="confirmar exclusão" style="points=[[0.25,0,0],[0.5,0,0],[0.75,0,0],[1,0.25,0],[1,0.5,0],[1,0.75,0],[0.75,1,0],[0.5,1,0],[0.25,1,0],[0,0.75,0],[0,0.5,0],[0,0.25,0]];shape=mxgraph.bpmn.task2;whiteSpace=wrap;rectStyle=rounded;size=10;html=1;container=1;expand=0;collapsible=0;taskMarker=abstract;" vertex="1" parent="dNxyNK7c78bLwvsdeMH5-20">
          <mxGeometry x="1280" y="700" width="120" height="80" as="geometry" />
        </mxCell>
        <mxCell id="XLGJFGpEY72RRmkggF6s-27" style="edgeStyle=orthogonalEdgeStyle;rounded=0;orthogonalLoop=1;jettySize=auto;html=1;exitX=0.5;exitY=0;exitDx=0;exitDy=0;exitPerimeter=0;entryX=0;entryY=0.5;entryDx=0;entryDy=0;entryPerimeter=0;" edge="1" parent="dNxyNK7c78bLwvsdeMH5-20" source="XLGJFGpEY72RRmkggF6s-18" target="XLGJFGpEY72RRmkggF6s-26">
          <mxGeometry relative="1" as="geometry" />
        </mxCell>
        <mxCell id="XLGJFGpEY72RRmkggF6s-29" value="excluir" style="edgeLabel;html=1;align=center;verticalAlign=middle;resizable=0;points=[];" vertex="1" connectable="0" parent="XLGJFGpEY72RRmkggF6s-27">
          <mxGeometry x="0.4217" y="-2" relative="1" as="geometry">
            <mxPoint as="offset" />
          </mxGeometry>
        </mxCell>
        <mxCell id="XLGJFGpEY72RRmkggF6s-30" value="confirmar exclusão?" style="strokeWidth=2;html=1;shape=mxgraph.flowchart.decision;whiteSpace=wrap;" vertex="1" parent="dNxyNK7c78bLwvsdeMH5-20">
          <mxGeometry x="1490" y="690" width="100" height="100" as="geometry" />
        </mxCell>
        <mxCell id="XLGJFGpEY72RRmkggF6s-31" style="edgeStyle=orthogonalEdgeStyle;rounded=0;orthogonalLoop=1;jettySize=auto;html=1;exitX=1;exitY=0.5;exitDx=0;exitDy=0;exitPerimeter=0;" edge="1" parent="dNxyNK7c78bLwvsdeMH5-20" source="XLGJFGpEY72RRmkggF6s-26" target="XLGJFGpEY72RRmkggF6s-30">
          <mxGeometry relative="1" as="geometry" />
        </mxCell>
        <mxCell id="XLGJFGpEY72RRmkggF6s-32" value="excluir usuário" style="points=[[0.25,0,0],[0.5,0,0],[0.75,0,0],[1,0.25,0],[1,0.5,0],[1,0.75,0],[0.75,1,0],[0.5,1,0],[0.25,1,0],[0,0.75,0],[0,0.5,0],[0,0.25,0]];shape=mxgraph.bpmn.task2;whiteSpace=wrap;rectStyle=rounded;size=10;html=1;container=1;expand=0;collapsible=0;taskMarker=abstract;" vertex="1" parent="dNxyNK7c78bLwvsdeMH5-20">
          <mxGeometry x="1670" y="700" width="120" height="80" as="geometry" />
        </mxCell>
        <mxCell id="XLGJFGpEY72RRmkggF6s-33" style="edgeStyle=orthogonalEdgeStyle;rounded=0;orthogonalLoop=1;jettySize=auto;html=1;exitX=1;exitY=0.5;exitDx=0;exitDy=0;exitPerimeter=0;entryX=0;entryY=0.5;entryDx=0;entryDy=0;entryPerimeter=0;" edge="1" parent="dNxyNK7c78bLwvsdeMH5-20" source="XLGJFGpEY72RRmkggF6s-30" target="XLGJFGpEY72RRmkggF6s-32">
          <mxGeometry relative="1" as="geometry" />
        </mxCell>
        <mxCell id="XLGJFGpEY72RRmkggF6s-34" value="sim" style="edgeLabel;html=1;align=center;verticalAlign=middle;resizable=0;points=[];" vertex="1" connectable="0" parent="XLGJFGpEY72RRmkggF6s-33">
          <mxGeometry x="-0.1519" y="1" relative="1" as="geometry">
            <mxPoint as="offset" />
          </mxGeometry>
        </mxCell>
        <mxCell id="XLGJFGpEY72RRmkggF6s-35" style="edgeStyle=orthogonalEdgeStyle;rounded=0;orthogonalLoop=1;jettySize=auto;html=1;exitX=0.5;exitY=1;exitDx=0;exitDy=0;exitPerimeter=0;entryX=0.25;entryY=1;entryDx=0;entryDy=0;entryPerimeter=0;" edge="1" parent="dNxyNK7c78bLwvsdeMH5-20" source="XLGJFGpEY72RRmkggF6s-32" target="XLGJFGpEY72RRmkggF6s-15">
          <mxGeometry relative="1" as="geometry" />
        </mxCell>
        <mxCell id="XLGJFGpEY72RRmkggF6s-37" style="edgeStyle=orthogonalEdgeStyle;rounded=0;orthogonalLoop=1;jettySize=auto;html=1;exitX=0.5;exitY=0;exitDx=0;exitDy=0;exitPerimeter=0;entryX=0.5;entryY=0;entryDx=0;entryDy=0;entryPerimeter=0;" edge="1" parent="dNxyNK7c78bLwvsdeMH5-20" source="XLGJFGpEY72RRmkggF6s-30" target="XLGJFGpEY72RRmkggF6s-15">
          <mxGeometry relative="1" as="geometry" />
        </mxCell>
        <mxCell id="XLGJFGpEY72RRmkggF6s-38" value="não" style="edgeLabel;html=1;align=center;verticalAlign=middle;resizable=0;points=[];" vertex="1" connectable="0" parent="XLGJFGpEY72RRmkggF6s-37">
          <mxGeometry x="-0.7333" y="2" relative="1" as="geometry">
            <mxPoint as="offset" />
          </mxGeometry>
        </mxCell>
        <mxCell id="XLGJFGpEY72RRmkggF6s-40" value="Listagem de livros" style="points=[[0.25,0,0],[0.5,0,0],[0.75,0,0],[1,0.25,0],[1,0.5,0],[1,0.75,0],[0.75,1,0],[0.5,1,0],[0.25,1,0],[0,0.75,0],[0,0.5,0],[0,0.25,0]];shape=mxgraph.bpmn.task2;whiteSpace=wrap;rectStyle=rounded;size=10;html=1;container=1;expand=0;collapsible=0;taskMarker=abstract;" vertex="1" parent="dNxyNK7c78bLwvsdeMH5-20">
          <mxGeometry x="849.9994117647059" y="1225.06" width="120" height="80" as="geometry" />
        </mxCell>
        <mxCell id="XLGJFGpEY72RRmkggF6s-42" value="ação desejada" style="strokeWidth=2;html=1;shape=mxgraph.flowchart.decision;whiteSpace=wrap;" vertex="1" parent="dNxyNK7c78bLwvsdeMH5-20">
          <mxGeometry x="1050.9994117647059" y="1215.06" width="100" height="100" as="geometry" />
        </mxCell>
        <mxCell id="XLGJFGpEY72RRmkggF6s-43" style="edgeStyle=orthogonalEdgeStyle;rounded=0;orthogonalLoop=1;jettySize=auto;html=1;exitX=1;exitY=0.5;exitDx=0;exitDy=0;exitPerimeter=0;entryX=0;entryY=0.5;entryDx=0;entryDy=0;entryPerimeter=0;" edge="1" parent="dNxyNK7c78bLwvsdeMH5-20" source="XLGJFGpEY72RRmkggF6s-40" target="XLGJFGpEY72RRmkggF6s-42">
          <mxGeometry relative="1" as="geometry" />
        </mxCell>
        <mxCell id="XLGJFGpEY72RRmkggF6s-44" value="formulário novo livro" style="points=[[0.25,0,0],[0.5,0,0],[0.75,0,0],[1,0.25,0],[1,0.5,0],[1,0.75,0],[0.75,1,0],[0.5,1,0],[0.25,1,0],[0,0.75,0],[0,0.5,0],[0,0.25,0]];shape=mxgraph.bpmn.task2;whiteSpace=wrap;rectStyle=rounded;size=10;html=1;container=1;expand=0;collapsible=0;taskMarker=abstract;" vertex="1" parent="dNxyNK7c78bLwvsdeMH5-20">
          <mxGeometry x="1269.9994117647059" y="1225.06" width="120" height="80" as="geometry" />
        </mxCell>
        <mxCell id="XLGJFGpEY72RRmkggF6s-45" style="edgeStyle=orthogonalEdgeStyle;rounded=0;orthogonalLoop=1;jettySize=auto;html=1;exitX=1;exitY=0.5;exitDx=0;exitDy=0;exitPerimeter=0;entryX=0;entryY=0.5;entryDx=0;entryDy=0;entryPerimeter=0;" edge="1" parent="dNxyNK7c78bLwvsdeMH5-20" source="XLGJFGpEY72RRmkggF6s-42" target="XLGJFGpEY72RRmkggF6s-44">
          <mxGeometry relative="1" as="geometry" />
        </mxCell>
        <mxCell id="XLGJFGpEY72RRmkggF6s-46" value="cadastrar" style="edgeLabel;html=1;align=center;verticalAlign=middle;resizable=0;points=[];" vertex="1" connectable="0" parent="XLGJFGpEY72RRmkggF6s-45">
          <mxGeometry x="-0.2295" y="-2" relative="1" as="geometry">
            <mxPoint as="offset" />
          </mxGeometry>
        </mxCell>
        <mxCell id="XLGJFGpEY72RRmkggF6s-47" value="confirmar exclusão" style="points=[[0.25,0,0],[0.5,0,0],[0.75,0,0],[1,0.25,0],[1,0.5,0],[1,0.75,0],[0.75,1,0],[0.5,1,0],[0.25,1,0],[0,0.75,0],[0,0.5,0],[0,0.25,0]];shape=mxgraph.bpmn.task2;whiteSpace=wrap;rectStyle=rounded;size=10;html=1;container=1;expand=0;collapsible=0;taskMarker=abstract;" vertex="1" parent="dNxyNK7c78bLwvsdeMH5-20">
          <mxGeometry x="1279.9994117647059" y="1070.06" width="120" height="80" as="geometry" />
        </mxCell>
        <mxCell id="XLGJFGpEY72RRmkggF6s-48" style="edgeStyle=orthogonalEdgeStyle;rounded=0;orthogonalLoop=1;jettySize=auto;html=1;exitX=0.5;exitY=0;exitDx=0;exitDy=0;exitPerimeter=0;entryX=0;entryY=0.5;entryDx=0;entryDy=0;entryPerimeter=0;" edge="1" parent="dNxyNK7c78bLwvsdeMH5-20" source="XLGJFGpEY72RRmkggF6s-42" target="XLGJFGpEY72RRmkggF6s-47">
          <mxGeometry relative="1" as="geometry" />
        </mxCell>
        <mxCell id="XLGJFGpEY72RRmkggF6s-49" value="excluir" style="edgeLabel;html=1;align=center;verticalAlign=middle;resizable=0;points=[];" vertex="1" connectable="0" parent="XLGJFGpEY72RRmkggF6s-48">
          <mxGeometry x="0.4217" y="-2" relative="1" as="geometry">
            <mxPoint as="offset" />
          </mxGeometry>
        </mxCell>
        <mxCell id="XLGJFGpEY72RRmkggF6s-50" value="confirmar exclusão?" style="strokeWidth=2;html=1;shape=mxgraph.flowchart.decision;whiteSpace=wrap;" vertex="1" parent="dNxyNK7c78bLwvsdeMH5-20">
          <mxGeometry x="1489.9994117647059" y="1060.06" width="100" height="100" as="geometry" />
        </mxCell>
        <mxCell id="XLGJFGpEY72RRmkggF6s-51" style="edgeStyle=orthogonalEdgeStyle;rounded=0;orthogonalLoop=1;jettySize=auto;html=1;exitX=1;exitY=0.5;exitDx=0;exitDy=0;exitPerimeter=0;" edge="1" parent="dNxyNK7c78bLwvsdeMH5-20" source="XLGJFGpEY72RRmkggF6s-47" target="XLGJFGpEY72RRmkggF6s-50">
          <mxGeometry relative="1" as="geometry" />
        </mxCell>
        <mxCell id="XLGJFGpEY72RRmkggF6s-52" value="excluir livro" style="points=[[0.25,0,0],[0.5,0,0],[0.75,0,0],[1,0.25,0],[1,0.5,0],[1,0.75,0],[0.75,1,0],[0.5,1,0],[0.25,1,0],[0,0.75,0],[0,0.5,0],[0,0.25,0]];shape=mxgraph.bpmn.task2;whiteSpace=wrap;rectStyle=rounded;size=10;html=1;container=1;expand=0;collapsible=0;taskMarker=abstract;" vertex="1" parent="dNxyNK7c78bLwvsdeMH5-20">
          <mxGeometry x="1669.9994117647059" y="1070.06" width="120" height="80" as="geometry" />
        </mxCell>
        <mxCell id="XLGJFGpEY72RRmkggF6s-53" style="edgeStyle=orthogonalEdgeStyle;rounded=0;orthogonalLoop=1;jettySize=auto;html=1;exitX=1;exitY=0.5;exitDx=0;exitDy=0;exitPerimeter=0;entryX=0;entryY=0.5;entryDx=0;entryDy=0;entryPerimeter=0;" edge="1" parent="dNxyNK7c78bLwvsdeMH5-20" source="XLGJFGpEY72RRmkggF6s-50" target="XLGJFGpEY72RRmkggF6s-52">
          <mxGeometry relative="1" as="geometry" />
        </mxCell>
        <mxCell id="XLGJFGpEY72RRmkggF6s-54" value="sim" style="edgeLabel;html=1;align=center;verticalAlign=middle;resizable=0;points=[];" vertex="1" connectable="0" parent="XLGJFGpEY72RRmkggF6s-53">
          <mxGeometry x="-0.1519" y="1" relative="1" as="geometry">
            <mxPoint as="offset" />
          </mxGeometry>
        </mxCell>
        <mxCell id="XLGJFGpEY72RRmkggF6s-55" style="edgeStyle=orthogonalEdgeStyle;rounded=0;orthogonalLoop=1;jettySize=auto;html=1;exitX=0.5;exitY=1;exitDx=0;exitDy=0;exitPerimeter=0;entryX=0.25;entryY=1;entryDx=0;entryDy=0;entryPerimeter=0;" edge="1" parent="dNxyNK7c78bLwvsdeMH5-20" source="XLGJFGpEY72RRmkggF6s-52" target="XLGJFGpEY72RRmkggF6s-40">
          <mxGeometry relative="1" as="geometry" />
        </mxCell>
        <mxCell id="XLGJFGpEY72RRmkggF6s-56" style="edgeStyle=orthogonalEdgeStyle;rounded=0;orthogonalLoop=1;jettySize=auto;html=1;exitX=0.5;exitY=0;exitDx=0;exitDy=0;exitPerimeter=0;entryX=0.5;entryY=0;entryDx=0;entryDy=0;entryPerimeter=0;" edge="1" parent="dNxyNK7c78bLwvsdeMH5-20" source="XLGJFGpEY72RRmkggF6s-50" target="XLGJFGpEY72RRmkggF6s-40">
          <mxGeometry relative="1" as="geometry" />
        </mxCell>
        <mxCell id="XLGJFGpEY72RRmkggF6s-57" value="não" style="edgeLabel;html=1;align=center;verticalAlign=middle;resizable=0;points=[];" vertex="1" connectable="0" parent="XLGJFGpEY72RRmkggF6s-56">
          <mxGeometry x="-0.7333" y="2" relative="1" as="geometry">
            <mxPoint as="offset" />
          </mxGeometry>
        </mxCell>
        <mxCell id="XLGJFGpEY72RRmkggF6s-58" value="salvar livro" style="points=[[0.25,0,0],[0.5,0,0],[0.75,0,0],[1,0.25,0],[1,0.5,0],[1,0.75,0],[0.75,1,0],[0.5,1,0],[0.25,1,0],[0,0.75,0],[0,0.5,0],[0,0.25,0]];shape=mxgraph.bpmn.task2;whiteSpace=wrap;rectStyle=rounded;size=10;html=1;container=1;expand=0;collapsible=0;taskMarker=abstract;" vertex="1" parent="dNxyNK7c78bLwvsdeMH5-20">
          <mxGeometry x="1479.9994117647059" y="1225.06" width="120" height="80" as="geometry" />
        </mxCell>
        <mxCell id="XLGJFGpEY72RRmkggF6s-59" style="edgeStyle=orthogonalEdgeStyle;rounded=0;orthogonalLoop=1;jettySize=auto;html=1;exitX=1;exitY=0.5;exitDx=0;exitDy=0;exitPerimeter=0;entryX=0;entryY=0.5;entryDx=0;entryDy=0;entryPerimeter=0;" edge="1" parent="dNxyNK7c78bLwvsdeMH5-20" source="XLGJFGpEY72RRmkggF6s-44" target="XLGJFGpEY72RRmkggF6s-58">
          <mxGeometry relative="1" as="geometry" />
        </mxCell>
        <mxCell id="XLGJFGpEY72RRmkggF6s-60" style="edgeStyle=orthogonalEdgeStyle;rounded=0;orthogonalLoop=1;jettySize=auto;html=1;exitX=0.5;exitY=1;exitDx=0;exitDy=0;exitPerimeter=0;entryX=0.5;entryY=1;entryDx=0;entryDy=0;entryPerimeter=0;" edge="1" parent="dNxyNK7c78bLwvsdeMH5-20" source="XLGJFGpEY72RRmkggF6s-58" target="XLGJFGpEY72RRmkggF6s-40">
          <mxGeometry relative="1" as="geometry">
            <Array as="points">
              <mxPoint x="1539.9994117647059" y="1340.06" />
              <mxPoint x="909.9994117647059" y="1340.06" />
            </Array>
          </mxGeometry>
        </mxCell>
        <mxCell id="XLGJFGpEY72RRmkggF6s-23" value="salvar usuário" style="points=[[0.25,0,0],[0.5,0,0],[0.75,0,0],[1,0.25,0],[1,0.5,0],[1,0.75,0],[0.75,1,0],[0.5,1,0],[0.25,1,0],[0,0.75,0],[0,0.5,0],[0,0.25,0]];shape=mxgraph.bpmn.task2;whiteSpace=wrap;rectStyle=rounded;size=10;html=1;container=1;expand=0;collapsible=0;taskMarker=abstract;" vertex="1" parent="dNxyNK7c78bLwvsdeMH5-20">
          <mxGeometry x="1480" y="855" width="120" height="80" as="geometry" />
        </mxCell>
        <mxCell id="XLGJFGpEY72RRmkggF6s-24" style="edgeStyle=orthogonalEdgeStyle;rounded=0;orthogonalLoop=1;jettySize=auto;html=1;exitX=1;exitY=0.5;exitDx=0;exitDy=0;exitPerimeter=0;entryX=0;entryY=0.5;entryDx=0;entryDy=0;entryPerimeter=0;" edge="1" parent="dNxyNK7c78bLwvsdeMH5-20" source="XLGJFGpEY72RRmkggF6s-20" target="XLGJFGpEY72RRmkggF6s-23">
          <mxGeometry relative="1" as="geometry" />
        </mxCell>
        <mxCell id="XLGJFGpEY72RRmkggF6s-25" style="edgeStyle=orthogonalEdgeStyle;rounded=0;orthogonalLoop=1;jettySize=auto;html=1;exitX=0.5;exitY=1;exitDx=0;exitDy=0;exitPerimeter=0;entryX=0.5;entryY=1;entryDx=0;entryDy=0;entryPerimeter=0;" edge="1" parent="dNxyNK7c78bLwvsdeMH5-20" source="XLGJFGpEY72RRmkggF6s-23" target="XLGJFGpEY72RRmkggF6s-15">
          <mxGeometry relative="1" as="geometry">
            <Array as="points">
              <mxPoint x="1540" y="970" />
              <mxPoint x="910" y="970" />
            </Array>
          </mxGeometry>
        </mxCell>
        <mxCell id="XLGJFGpEY72RRmkggF6s-62" style="edgeStyle=orthogonalEdgeStyle;rounded=0;orthogonalLoop=1;jettySize=auto;html=1;exitX=0.5;exitY=1;exitDx=0;exitDy=0;exitPerimeter=0;entryX=0;entryY=0.5;entryDx=0;entryDy=0;entryPerimeter=0;" edge="1" parent="dNxyNK7c78bLwvsdeMH5-20" source="XLGJFGpEY72RRmkggF6s-8" target="XLGJFGpEY72RRmkggF6s-40">
          <mxGeometry relative="1" as="geometry" />
        </mxCell>
        <mxCell id="XLGJFGpEY72RRmkggF6s-63" value="livros" style="edgeLabel;html=1;align=center;verticalAlign=middle;resizable=0;points=[];" vertex="1" connectable="0" parent="XLGJFGpEY72RRmkggF6s-62">
          <mxGeometry x="-0.3323" y="-2" relative="1" as="geometry">
            <mxPoint as="offset" />
          </mxGeometry>
        </mxCell>
        <mxCell id="XLGJFGpEY72RRmkggF6s-64" value="Listagem de devoluções" style="points=[[0.25,0,0],[0.5,0,0],[0.75,0,0],[1,0.25,0],[1,0.5,0],[1,0.75,0],[0.75,1,0],[0.5,1,0],[0.25,1,0],[0,0.75,0],[0,0.5,0],[0,0.25,0]];shape=mxgraph.bpmn.task2;whiteSpace=wrap;rectStyle=rounded;size=10;html=1;container=1;expand=0;collapsible=0;taskMarker=abstract;" vertex="1" parent="dNxyNK7c78bLwvsdeMH5-20">
          <mxGeometry x="800" y="1615" width="120" height="80" as="geometry" />
        </mxCell>
        <mxCell id="XLGJFGpEY72RRmkggF6s-65" value="ação desejada" style="strokeWidth=2;html=1;shape=mxgraph.flowchart.decision;whiteSpace=wrap;" vertex="1" parent="dNxyNK7c78bLwvsdeMH5-20">
          <mxGeometry x="1001" y="1605" width="100" height="100" as="geometry" />
        </mxCell>
        <mxCell id="XLGJFGpEY72RRmkggF6s-66" style="edgeStyle=orthogonalEdgeStyle;rounded=0;orthogonalLoop=1;jettySize=auto;html=1;exitX=1;exitY=0.5;exitDx=0;exitDy=0;exitPerimeter=0;entryX=0;entryY=0.5;entryDx=0;entryDy=0;entryPerimeter=0;" edge="1" parent="dNxyNK7c78bLwvsdeMH5-20" source="XLGJFGpEY72RRmkggF6s-64" target="XLGJFGpEY72RRmkggF6s-65">
          <mxGeometry relative="1" as="geometry" />
        </mxCell>
        <mxCell id="XLGJFGpEY72RRmkggF6s-67" value="formulário nova devolução" style="points=[[0.25,0,0],[0.5,0,0],[0.75,0,0],[1,0.25,0],[1,0.5,0],[1,0.75,0],[0.75,1,0],[0.5,1,0],[0.25,1,0],[0,0.75,0],[0,0.5,0],[0,0.25,0]];shape=mxgraph.bpmn.task2;whiteSpace=wrap;rectStyle=rounded;size=10;html=1;container=1;expand=0;collapsible=0;taskMarker=abstract;" vertex="1" parent="dNxyNK7c78bLwvsdeMH5-20">
          <mxGeometry x="1220" y="1615" width="120" height="80" as="geometry" />
        </mxCell>
        <mxCell id="XLGJFGpEY72RRmkggF6s-68" style="edgeStyle=orthogonalEdgeStyle;rounded=0;orthogonalLoop=1;jettySize=auto;html=1;exitX=1;exitY=0.5;exitDx=0;exitDy=0;exitPerimeter=0;entryX=0;entryY=0.5;entryDx=0;entryDy=0;entryPerimeter=0;" edge="1" parent="dNxyNK7c78bLwvsdeMH5-20" source="XLGJFGpEY72RRmkggF6s-65" target="XLGJFGpEY72RRmkggF6s-67">
          <mxGeometry relative="1" as="geometry" />
        </mxCell>
        <mxCell id="XLGJFGpEY72RRmkggF6s-69" value="cadastrar" style="edgeLabel;html=1;align=center;verticalAlign=middle;resizable=0;points=[];" vertex="1" connectable="0" parent="XLGJFGpEY72RRmkggF6s-68">
          <mxGeometry x="-0.2295" y="-2" relative="1" as="geometry">
            <mxPoint as="offset" />
          </mxGeometry>
        </mxCell>
        <mxCell id="XLGJFGpEY72RRmkggF6s-70" value="confirmar exclusão" style="points=[[0.25,0,0],[0.5,0,0],[0.75,0,0],[1,0.25,0],[1,0.5,0],[1,0.75,0],[0.75,1,0],[0.5,1,0],[0.25,1,0],[0,0.75,0],[0,0.5,0],[0,0.25,0]];shape=mxgraph.bpmn.task2;whiteSpace=wrap;rectStyle=rounded;size=10;html=1;container=1;expand=0;collapsible=0;taskMarker=abstract;" vertex="1" parent="dNxyNK7c78bLwvsdeMH5-20">
          <mxGeometry x="1230" y="1460" width="120" height="80" as="geometry" />
        </mxCell>
        <mxCell id="XLGJFGpEY72RRmkggF6s-71" style="edgeStyle=orthogonalEdgeStyle;rounded=0;orthogonalLoop=1;jettySize=auto;html=1;exitX=0.5;exitY=0;exitDx=0;exitDy=0;exitPerimeter=0;entryX=0;entryY=0.5;entryDx=0;entryDy=0;entryPerimeter=0;" edge="1" parent="dNxyNK7c78bLwvsdeMH5-20" source="XLGJFGpEY72RRmkggF6s-65" target="XLGJFGpEY72RRmkggF6s-70">
          <mxGeometry relative="1" as="geometry" />
        </mxCell>
        <mxCell id="XLGJFGpEY72RRmkggF6s-72" value="excluir" style="edgeLabel;html=1;align=center;verticalAlign=middle;resizable=0;points=[];" vertex="1" connectable="0" parent="XLGJFGpEY72RRmkggF6s-71">
          <mxGeometry x="0.4217" y="-2" relative="1" as="geometry">
            <mxPoint as="offset" />
          </mxGeometry>
        </mxCell>
        <mxCell id="XLGJFGpEY72RRmkggF6s-73" value="confirmar exclusão?" style="strokeWidth=2;html=1;shape=mxgraph.flowchart.decision;whiteSpace=wrap;" vertex="1" parent="dNxyNK7c78bLwvsdeMH5-20">
          <mxGeometry x="1440" y="1450" width="100" height="100" as="geometry" />
        </mxCell>
        <mxCell id="XLGJFGpEY72RRmkggF6s-74" style="edgeStyle=orthogonalEdgeStyle;rounded=0;orthogonalLoop=1;jettySize=auto;html=1;exitX=1;exitY=0.5;exitDx=0;exitDy=0;exitPerimeter=0;" edge="1" parent="dNxyNK7c78bLwvsdeMH5-20" source="XLGJFGpEY72RRmkggF6s-70" target="XLGJFGpEY72RRmkggF6s-73">
          <mxGeometry relative="1" as="geometry" />
        </mxCell>
        <mxCell id="XLGJFGpEY72RRmkggF6s-75" value="excluir devolução" style="points=[[0.25,0,0],[0.5,0,0],[0.75,0,0],[1,0.25,0],[1,0.5,0],[1,0.75,0],[0.75,1,0],[0.5,1,0],[0.25,1,0],[0,0.75,0],[0,0.5,0],[0,0.25,0]];shape=mxgraph.bpmn.task2;whiteSpace=wrap;rectStyle=rounded;size=10;html=1;container=1;expand=0;collapsible=0;taskMarker=abstract;" vertex="1" parent="dNxyNK7c78bLwvsdeMH5-20">
          <mxGeometry x="1630" y="1460" width="120" height="80" as="geometry" />
        </mxCell>
        <mxCell id="XLGJFGpEY72RRmkggF6s-76" style="edgeStyle=orthogonalEdgeStyle;rounded=0;orthogonalLoop=1;jettySize=auto;html=1;exitX=1;exitY=0.5;exitDx=0;exitDy=0;exitPerimeter=0;entryX=0;entryY=0.5;entryDx=0;entryDy=0;entryPerimeter=0;" edge="1" parent="dNxyNK7c78bLwvsdeMH5-20" source="XLGJFGpEY72RRmkggF6s-73" target="XLGJFGpEY72RRmkggF6s-75">
          <mxGeometry relative="1" as="geometry" />
        </mxCell>
        <mxCell id="XLGJFGpEY72RRmkggF6s-77" value="sim" style="edgeLabel;html=1;align=center;verticalAlign=middle;resizable=0;points=[];" vertex="1" connectable="0" parent="XLGJFGpEY72RRmkggF6s-76">
          <mxGeometry x="-0.1519" y="1" relative="1" as="geometry">
            <mxPoint as="offset" />
          </mxGeometry>
        </mxCell>
        <mxCell id="XLGJFGpEY72RRmkggF6s-78" style="edgeStyle=orthogonalEdgeStyle;rounded=0;orthogonalLoop=1;jettySize=auto;html=1;exitX=0.5;exitY=1;exitDx=0;exitDy=0;exitPerimeter=0;entryX=0.25;entryY=1;entryDx=0;entryDy=0;entryPerimeter=0;" edge="1" parent="dNxyNK7c78bLwvsdeMH5-20" source="XLGJFGpEY72RRmkggF6s-75" target="XLGJFGpEY72RRmkggF6s-64">
          <mxGeometry relative="1" as="geometry" />
        </mxCell>
        <mxCell id="XLGJFGpEY72RRmkggF6s-79" style="edgeStyle=orthogonalEdgeStyle;rounded=0;orthogonalLoop=1;jettySize=auto;html=1;exitX=0.5;exitY=0;exitDx=0;exitDy=0;exitPerimeter=0;entryX=0.5;entryY=0;entryDx=0;entryDy=0;entryPerimeter=0;" edge="1" parent="dNxyNK7c78bLwvsdeMH5-20" source="XLGJFGpEY72RRmkggF6s-73" target="XLGJFGpEY72RRmkggF6s-64">
          <mxGeometry relative="1" as="geometry" />
        </mxCell>
        <mxCell id="XLGJFGpEY72RRmkggF6s-80" value="não" style="edgeLabel;html=1;align=center;verticalAlign=middle;resizable=0;points=[];" vertex="1" connectable="0" parent="XLGJFGpEY72RRmkggF6s-79">
          <mxGeometry x="-0.7333" y="2" relative="1" as="geometry">
            <mxPoint as="offset" />
          </mxGeometry>
        </mxCell>
        <mxCell id="XLGJFGpEY72RRmkggF6s-81" value="salvar devolução" style="points=[[0.25,0,0],[0.5,0,0],[0.75,0,0],[1,0.25,0],[1,0.5,0],[1,0.75,0],[0.75,1,0],[0.5,1,0],[0.25,1,0],[0,0.75,0],[0,0.5,0],[0,0.25,0]];shape=mxgraph.bpmn.task2;whiteSpace=wrap;rectStyle=rounded;size=10;html=1;container=1;expand=0;collapsible=0;taskMarker=abstract;" vertex="1" parent="dNxyNK7c78bLwvsdeMH5-20">
          <mxGeometry x="1430" y="1615" width="120" height="80" as="geometry" />
        </mxCell>
        <mxCell id="XLGJFGpEY72RRmkggF6s-82" style="edgeStyle=orthogonalEdgeStyle;rounded=0;orthogonalLoop=1;jettySize=auto;html=1;exitX=1;exitY=0.5;exitDx=0;exitDy=0;exitPerimeter=0;entryX=0;entryY=0.5;entryDx=0;entryDy=0;entryPerimeter=0;" edge="1" parent="dNxyNK7c78bLwvsdeMH5-20" source="XLGJFGpEY72RRmkggF6s-67" target="XLGJFGpEY72RRmkggF6s-81">
          <mxGeometry relative="1" as="geometry" />
        </mxCell>
        <mxCell id="XLGJFGpEY72RRmkggF6s-83" style="edgeStyle=orthogonalEdgeStyle;rounded=0;orthogonalLoop=1;jettySize=auto;html=1;exitX=0.5;exitY=1;exitDx=0;exitDy=0;exitPerimeter=0;entryX=0.5;entryY=1;entryDx=0;entryDy=0;entryPerimeter=0;" edge="1" parent="dNxyNK7c78bLwvsdeMH5-20" source="XLGJFGpEY72RRmkggF6s-81" target="XLGJFGpEY72RRmkggF6s-64">
          <mxGeometry relative="1" as="geometry">
            <Array as="points">
              <mxPoint x="1490" y="1730" />
              <mxPoint x="860" y="1730" />
            </Array>
          </mxGeometry>
        </mxCell>
        <mxCell id="XLGJFGpEY72RRmkggF6s-84" style="edgeStyle=orthogonalEdgeStyle;rounded=0;orthogonalLoop=1;jettySize=auto;html=1;exitX=0;exitY=0.5;exitDx=0;exitDy=0;exitPerimeter=0;entryX=0.198;entryY=0.708;entryDx=0;entryDy=0;entryPerimeter=0;startArrow=classic;startFill=1;endArrow=none;endFill=0;" edge="1" parent="dNxyNK7c78bLwvsdeMH5-20" source="XLGJFGpEY72RRmkggF6s-64" target="XLGJFGpEY72RRmkggF6s-8">
          <mxGeometry relative="1" as="geometry" />
        </mxCell>
        <mxCell id="XLGJFGpEY72RRmkggF6s-85" value="devoluções" style="edgeLabel;html=1;align=center;verticalAlign=middle;resizable=0;points=[];" vertex="1" connectable="0" parent="XLGJFGpEY72RRmkggF6s-84">
          <mxGeometry x="0.0519" y="-2" relative="1" as="geometry">
            <mxPoint as="offset" />
          </mxGeometry>
        </mxCell>
        <mxCell id="XLGJFGpEY72RRmkggF6s-107" value="Listagem de empréstimos" style="points=[[0.25,0,0],[0.5,0,0],[0.75,0,0],[1,0.25,0],[1,0.5,0],[1,0.75,0],[0.75,1,0],[0.5,1,0],[0.25,1,0],[0,0.75,0],[0,0.5,0],[0,0.25,0]];shape=mxgraph.bpmn.task2;whiteSpace=wrap;rectStyle=rounded;size=10;html=1;container=1;expand=0;collapsible=0;taskMarker=abstract;" vertex="1" parent="dNxyNK7c78bLwvsdeMH5-20">
          <mxGeometry x="820" y="344.9100000000001" width="120" height="80" as="geometry" />
        </mxCell>
        <mxCell id="XLGJFGpEY72RRmkggF6s-108" value="ação desejada" style="strokeWidth=2;html=1;shape=mxgraph.flowchart.decision;whiteSpace=wrap;" vertex="1" parent="dNxyNK7c78bLwvsdeMH5-20">
          <mxGeometry x="1021" y="334.9100000000001" width="100" height="100" as="geometry" />
        </mxCell>
        <mxCell id="XLGJFGpEY72RRmkggF6s-109" style="edgeStyle=orthogonalEdgeStyle;rounded=0;orthogonalLoop=1;jettySize=auto;html=1;exitX=1;exitY=0.5;exitDx=0;exitDy=0;exitPerimeter=0;entryX=0;entryY=0.5;entryDx=0;entryDy=0;entryPerimeter=0;" edge="1" parent="dNxyNK7c78bLwvsdeMH5-20" source="XLGJFGpEY72RRmkggF6s-107" target="XLGJFGpEY72RRmkggF6s-108">
          <mxGeometry relative="1" as="geometry" />
        </mxCell>
        <mxCell id="XLGJFGpEY72RRmkggF6s-110" value="formulário novo empréstimo" style="points=[[0.25,0,0],[0.5,0,0],[0.75,0,0],[1,0.25,0],[1,0.5,0],[1,0.75,0],[0.75,1,0],[0.5,1,0],[0.25,1,0],[0,0.75,0],[0,0.5,0],[0,0.25,0]];shape=mxgraph.bpmn.task2;whiteSpace=wrap;rectStyle=rounded;size=10;html=1;container=1;expand=0;collapsible=0;taskMarker=abstract;" vertex="1" parent="dNxyNK7c78bLwvsdeMH5-20">
          <mxGeometry x="1240" y="344.9100000000001" width="120" height="80" as="geometry" />
        </mxCell>
        <mxCell id="XLGJFGpEY72RRmkggF6s-111" style="edgeStyle=orthogonalEdgeStyle;rounded=0;orthogonalLoop=1;jettySize=auto;html=1;exitX=1;exitY=0.5;exitDx=0;exitDy=0;exitPerimeter=0;entryX=0;entryY=0.5;entryDx=0;entryDy=0;entryPerimeter=0;" edge="1" parent="dNxyNK7c78bLwvsdeMH5-20" source="XLGJFGpEY72RRmkggF6s-108" target="XLGJFGpEY72RRmkggF6s-110">
          <mxGeometry relative="1" as="geometry" />
        </mxCell>
        <mxCell id="XLGJFGpEY72RRmkggF6s-112" value="cadastrar" style="edgeLabel;html=1;align=center;verticalAlign=middle;resizable=0;points=[];" vertex="1" connectable="0" parent="XLGJFGpEY72RRmkggF6s-111">
          <mxGeometry x="-0.2295" y="-2" relative="1" as="geometry">
            <mxPoint as="offset" />
          </mxGeometry>
        </mxCell>
        <mxCell id="XLGJFGpEY72RRmkggF6s-113" value="confirmar exclusão" style="points=[[0.25,0,0],[0.5,0,0],[0.75,0,0],[1,0.25,0],[1,0.5,0],[1,0.75,0],[0.75,1,0],[0.5,1,0],[0.25,1,0],[0,0.75,0],[0,0.5,0],[0,0.25,0]];shape=mxgraph.bpmn.task2;whiteSpace=wrap;rectStyle=rounded;size=10;html=1;container=1;expand=0;collapsible=0;taskMarker=abstract;" vertex="1" parent="dNxyNK7c78bLwvsdeMH5-20">
          <mxGeometry x="1250" y="189.91000000000008" width="120" height="80" as="geometry" />
        </mxCell>
        <mxCell id="XLGJFGpEY72RRmkggF6s-114" style="edgeStyle=orthogonalEdgeStyle;rounded=0;orthogonalLoop=1;jettySize=auto;html=1;exitX=0.5;exitY=0;exitDx=0;exitDy=0;exitPerimeter=0;entryX=0;entryY=0.5;entryDx=0;entryDy=0;entryPerimeter=0;" edge="1" parent="dNxyNK7c78bLwvsdeMH5-20" source="XLGJFGpEY72RRmkggF6s-108" target="XLGJFGpEY72RRmkggF6s-113">
          <mxGeometry relative="1" as="geometry" />
        </mxCell>
        <mxCell id="XLGJFGpEY72RRmkggF6s-115" value="excluir" style="edgeLabel;html=1;align=center;verticalAlign=middle;resizable=0;points=[];" vertex="1" connectable="0" parent="XLGJFGpEY72RRmkggF6s-114">
          <mxGeometry x="0.4217" y="-2" relative="1" as="geometry">
            <mxPoint as="offset" />
          </mxGeometry>
        </mxCell>
        <mxCell id="XLGJFGpEY72RRmkggF6s-116" value="confirmar exclusão?" style="strokeWidth=2;html=1;shape=mxgraph.flowchart.decision;whiteSpace=wrap;" vertex="1" parent="dNxyNK7c78bLwvsdeMH5-20">
          <mxGeometry x="1460" y="179.91000000000008" width="100" height="100" as="geometry" />
        </mxCell>
        <mxCell id="XLGJFGpEY72RRmkggF6s-117" style="edgeStyle=orthogonalEdgeStyle;rounded=0;orthogonalLoop=1;jettySize=auto;html=1;exitX=1;exitY=0.5;exitDx=0;exitDy=0;exitPerimeter=0;" edge="1" parent="dNxyNK7c78bLwvsdeMH5-20" source="XLGJFGpEY72RRmkggF6s-113" target="XLGJFGpEY72RRmkggF6s-116">
          <mxGeometry relative="1" as="geometry" />
        </mxCell>
        <mxCell id="XLGJFGpEY72RRmkggF6s-118" value="excluir empréstimo" style="points=[[0.25,0,0],[0.5,0,0],[0.75,0,0],[1,0.25,0],[1,0.5,0],[1,0.75,0],[0.75,1,0],[0.5,1,0],[0.25,1,0],[0,0.75,0],[0,0.5,0],[0,0.25,0]];shape=mxgraph.bpmn.task2;whiteSpace=wrap;rectStyle=rounded;size=10;html=1;container=1;expand=0;collapsible=0;taskMarker=abstract;" vertex="1" parent="dNxyNK7c78bLwvsdeMH5-20">
          <mxGeometry x="1640" y="189.91000000000008" width="120" height="80" as="geometry" />
        </mxCell>
        <mxCell id="XLGJFGpEY72RRmkggF6s-119" style="edgeStyle=orthogonalEdgeStyle;rounded=0;orthogonalLoop=1;jettySize=auto;html=1;exitX=1;exitY=0.5;exitDx=0;exitDy=0;exitPerimeter=0;entryX=0;entryY=0.5;entryDx=0;entryDy=0;entryPerimeter=0;" edge="1" parent="dNxyNK7c78bLwvsdeMH5-20" source="XLGJFGpEY72RRmkggF6s-116" target="XLGJFGpEY72RRmkggF6s-118">
          <mxGeometry relative="1" as="geometry" />
        </mxCell>
        <mxCell id="XLGJFGpEY72RRmkggF6s-120" value="sim" style="edgeLabel;html=1;align=center;verticalAlign=middle;resizable=0;points=[];" vertex="1" connectable="0" parent="XLGJFGpEY72RRmkggF6s-119">
          <mxGeometry x="-0.1519" y="1" relative="1" as="geometry">
            <mxPoint as="offset" />
          </mxGeometry>
        </mxCell>
        <mxCell id="XLGJFGpEY72RRmkggF6s-121" style="edgeStyle=orthogonalEdgeStyle;rounded=0;orthogonalLoop=1;jettySize=auto;html=1;exitX=0.5;exitY=1;exitDx=0;exitDy=0;exitPerimeter=0;entryX=0.25;entryY=1;entryDx=0;entryDy=0;entryPerimeter=0;" edge="1" parent="dNxyNK7c78bLwvsdeMH5-20" source="XLGJFGpEY72RRmkggF6s-118" target="XLGJFGpEY72RRmkggF6s-107">
          <mxGeometry relative="1" as="geometry" />
        </mxCell>
        <mxCell id="XLGJFGpEY72RRmkggF6s-122" style="edgeStyle=orthogonalEdgeStyle;rounded=0;orthogonalLoop=1;jettySize=auto;html=1;exitX=0.5;exitY=0;exitDx=0;exitDy=0;exitPerimeter=0;entryX=0.5;entryY=0;entryDx=0;entryDy=0;entryPerimeter=0;" edge="1" parent="dNxyNK7c78bLwvsdeMH5-20" source="XLGJFGpEY72RRmkggF6s-116" target="XLGJFGpEY72RRmkggF6s-107">
          <mxGeometry relative="1" as="geometry" />
        </mxCell>
        <mxCell id="XLGJFGpEY72RRmkggF6s-123" value="não" style="edgeLabel;html=1;align=center;verticalAlign=middle;resizable=0;points=[];" vertex="1" connectable="0" parent="XLGJFGpEY72RRmkggF6s-122">
          <mxGeometry x="-0.7333" y="2" relative="1" as="geometry">
            <mxPoint as="offset" />
          </mxGeometry>
        </mxCell>
        <mxCell id="XLGJFGpEY72RRmkggF6s-124" value="salvar empréstimo" style="points=[[0.25,0,0],[0.5,0,0],[0.75,0,0],[1,0.25,0],[1,0.5,0],[1,0.75,0],[0.75,1,0],[0.5,1,0],[0.25,1,0],[0,0.75,0],[0,0.5,0],[0,0.25,0]];shape=mxgraph.bpmn.task2;whiteSpace=wrap;rectStyle=rounded;size=10;html=1;container=1;expand=0;collapsible=0;taskMarker=abstract;" vertex="1" parent="dNxyNK7c78bLwvsdeMH5-20">
          <mxGeometry x="1450" y="344.9100000000001" width="120" height="80" as="geometry" />
        </mxCell>
        <mxCell id="XLGJFGpEY72RRmkggF6s-125" style="edgeStyle=orthogonalEdgeStyle;rounded=0;orthogonalLoop=1;jettySize=auto;html=1;exitX=1;exitY=0.5;exitDx=0;exitDy=0;exitPerimeter=0;entryX=0;entryY=0.5;entryDx=0;entryDy=0;entryPerimeter=0;" edge="1" parent="dNxyNK7c78bLwvsdeMH5-20" source="XLGJFGpEY72RRmkggF6s-110" target="XLGJFGpEY72RRmkggF6s-124">
          <mxGeometry relative="1" as="geometry" />
        </mxCell>
        <mxCell id="XLGJFGpEY72RRmkggF6s-126" style="edgeStyle=orthogonalEdgeStyle;rounded=0;orthogonalLoop=1;jettySize=auto;html=1;exitX=0.5;exitY=1;exitDx=0;exitDy=0;exitPerimeter=0;entryX=0.5;entryY=1;entryDx=0;entryDy=0;entryPerimeter=0;" edge="1" parent="dNxyNK7c78bLwvsdeMH5-20" source="XLGJFGpEY72RRmkggF6s-124" target="XLGJFGpEY72RRmkggF6s-107">
          <mxGeometry relative="1" as="geometry">
            <Array as="points">
              <mxPoint x="1510" y="459.9100000000001" />
              <mxPoint x="880" y="459.9100000000001" />
            </Array>
          </mxGeometry>
        </mxCell>
        <mxCell id="XLGJFGpEY72RRmkggF6s-230" value="alterar status do retorno" style="points=[[0.25,0,0],[0.5,0,0],[0.75,0,0],[1,0.25,0],[1,0.5,0],[1,0.75,0],[0.75,1,0],[0.5,1,0],[0.25,1,0],[0,0.75,0],[0,0.5,0],[0,0.25,0]];shape=mxgraph.bpmn.task2;whiteSpace=wrap;rectStyle=rounded;size=10;html=1;container=1;expand=0;collapsible=0;taskMarker=abstract;" vertex="1" parent="dNxyNK7c78bLwvsdeMH5-20">
          <mxGeometry x="1270" y="490" width="120" height="80" as="geometry" />
        </mxCell>
        <mxCell id="XLGJFGpEY72RRmkggF6s-231" style="edgeStyle=orthogonalEdgeStyle;rounded=0;orthogonalLoop=1;jettySize=auto;html=1;exitX=0.5;exitY=1;exitDx=0;exitDy=0;exitPerimeter=0;entryX=0;entryY=0.5;entryDx=0;entryDy=0;entryPerimeter=0;" edge="1" parent="dNxyNK7c78bLwvsdeMH5-20" source="XLGJFGpEY72RRmkggF6s-108" target="XLGJFGpEY72RRmkggF6s-230">
          <mxGeometry relative="1" as="geometry" />
        </mxCell>
        <mxCell id="XLGJFGpEY72RRmkggF6s-232" value="alterar status do retorno" style="edgeLabel;html=1;align=center;verticalAlign=middle;resizable=0;points=[];" vertex="1" connectable="0" parent="XLGJFGpEY72RRmkggF6s-231">
          <mxGeometry x="0.0943" y="1" relative="1" as="geometry">
            <mxPoint x="33" y="1" as="offset" />
          </mxGeometry>
        </mxCell>
        <mxCell id="XLGJFGpEY72RRmkggF6s-233" style="edgeStyle=orthogonalEdgeStyle;rounded=0;orthogonalLoop=1;jettySize=auto;html=1;exitX=0.5;exitY=0;exitDx=0;exitDy=0;exitPerimeter=0;entryX=0.713;entryY=0.817;entryDx=0;entryDy=0;entryPerimeter=0;" edge="1" parent="dNxyNK7c78bLwvsdeMH5-20" source="XLGJFGpEY72RRmkggF6s-230" target="XLGJFGpEY72RRmkggF6s-108">
          <mxGeometry relative="1" as="geometry">
            <Array as="points">
              <mxPoint x="1330" y="480" />
              <mxPoint x="1092" y="480" />
            </Array>
          </mxGeometry>
        </mxCell>
      </root>
    </mxGraphModel>
  </diagram>
</mxfile>
